HIERARCHY
ROOT hip
{
  OFFSET 0 0 0
  CHANNELS 6 Xposition Yposition Zposition Zrotation Yrotation Xrotation
  JOINT abdomen
  {
    OFFSET 0 20.6881 -0.73152
    CHANNELS 3 Zrotation Xrotation Yrotation
    JOINT chest
    {
      OFFSET 0 11.7043 -0.48768
      CHANNELS 3 Zrotation Xrotation Yrotation
      JOINT neck
      {
        OFFSET 0 22.1894 -2.19456
        CHANNELS 3 Zrotation Xrotation Yrotation
        JOINT head
        {
          OFFSET -0.24384 7.07133 1.2192
          CHANNELS 3 Zrotation Xrotation Yrotation
          JOINT leftEye
          {
            OFFSET 4.14528 8.04674 8.04672
            CHANNELS 3 Zrotation Xrotation Yrotation
            End Site
            {
              OFFSET 1 0 0
            }
          }
          JOINT rightEye
          {
            OFFSET -3.6576 8.04674 8.04672
            CHANNELS 3 Zrotation Xrotation Yrotation
            End Site
            {
              OFFSET 1 0 0
            }
          }
        }
      }
      JOINT rCollar
      {
        OFFSET -2.68224 19.2634 -4.8768
        CHANNELS 3 Zrotation Xrotation Yrotation
        JOINT rShldr
        {
          OFFSET -8.77824 -1.95073 1.46304
          CHANNELS 3 Zrotation Xrotation Yrotation
          JOINT rForeArm
          {
            OFFSET -28.1742 -1.7115 0.48768
            CHANNELS 3 Zrotation Xrotation Yrotation
            JOINT rHand
            {
              OFFSET -22.5879 0.773209 7.07136
              CHANNELS 3 Zrotation Xrotation Yrotation
              JOINT rThumb1
              {
                OFFSET -1.2192 -0.487915 3.41376
                CHANNELS 3 Zrotation Xrotation Yrotation
                JOINT rThumb2
                {
                  OFFSET -3.37035 -0.52449 3.41376
                  CHANNELS 3 Zrotation Xrotation Yrotation
                  End Site
                  {
                    OFFSET -1.78271 -1.18214 1.43049
                  }
                }
              }
              JOINT rIndex1
              {
                OFFSET -7.75947 0.938293 5.60832
                CHANNELS 3 Zrotation Xrotation Yrotation
                JOINT rIndex2
                {
                  OFFSET -2.54057 -0.884171 1.56538
                  CHANNELS 3 Zrotation Xrotation Yrotation
                  End Site
                  {
                    OFFSET -1.62519 -0.234802 1.16502
                  }
                }
              }
              JOINT rMid1
              {
                OFFSET -8.24714 1.18213 3.41376
                CHANNELS 3 Zrotation Xrotation Yrotation
                JOINT rMid2
                {
                  OFFSET -3.10165 -0.590103 1.0647
                  CHANNELS 3 Zrotation Xrotation Yrotation
                  End Site
                  {
                    OFFSET -2.48547 -0.328903 0.83742
                  }
                }
              }
              JOINT rRing1
              {
                OFFSET -8.82822 0.546677 1.51678
                CHANNELS 3 Zrotation Xrotation Yrotation
                JOINT rRing2
                {
                  OFFSET -2.60934 -0.819778 -0.0198488
                  CHANNELS 3 Zrotation Xrotation Yrotation
                  End Site
                  {
                    OFFSET -2.33842 -0.294052 0.168128
                  }
                }
              }
              JOINT rPinky1
              {
                OFFSET -8.27202 -0.0477905 -0.4584
                CHANNELS 3 Zrotation Xrotation Yrotation
                JOINT rPinky2
                {
                  OFFSET -1.82734 -0.647385 -0.700984
                  CHANNELS 3 Zrotation Xrotation Yrotation
                  End Site
                  {
                    OFFSET -1.69225 -0.51767 -0.607171
                  }
                }
              }
            }
          }
        }
      }
      JOINT lCollar
      {
        OFFSET 2.68224 19.2634 -4.8768
        CHANNELS 3 Zrotation Xrotation Yrotation
        JOINT lShldr
        {
          OFFSET 8.77824 -1.95073 1.46304
          CHANNELS 3 Zrotation Xrotation Yrotation
          JOINT lForeArm
          {
            OFFSET 28.1742 -1.7115 0.48768
            CHANNELS 3 Zrotation Xrotation Yrotation
            JOINT lHand
            {
              OFFSET 22.5879 0.773209 7.07136
              CHANNELS 3 Zrotation Xrotation Yrotation
              JOINT lThumb1
              {
                OFFSET 1.2192 -0.487915 3.41376
                CHANNELS 3 Zrotation Xrotation Yrotation
                JOINT lThumb2
                {
                  OFFSET 3.37035 -0.52449 3.41376
                  CHANNELS 3 Zrotation Xrotation Yrotation
                  End Site
                  {
                    OFFSET 1.78271 -1.18214 1.43049
                  }
                }
              }
              JOINT lIndex1
              {
                OFFSET 7.75947 0.938293 5.60832
                CHANNELS 3 Zrotation Xrotation Yrotation
                JOINT lIndex2
                {
                  OFFSET 2.54057 -0.884171 1.56538
                  CHANNELS 3 Zrotation Xrotation Yrotation
                  End Site
                  {
                    OFFSET 1.62519 -0.234802 1.16502
                  }
                }
              }
              JOINT lMid1
              {
                OFFSET 8.24714 1.18213 3.41376
                CHANNELS 3 Zrotation Xrotation Yrotation
                JOINT lMid2
                {
                  OFFSET 3.10165 -0.590103 1.0647
                  CHANNELS 3 Zrotation Xrotation Yrotation
                  End Site
                  {
                    OFFSET 2.48547 -0.328903 0.83742
                  }
                }
              }
              JOINT lRing1
              {
                OFFSET 8.82822 0.546677 1.51678
                CHANNELS 3 Zrotation Xrotation Yrotation
                JOINT lRing2
                {
                  OFFSET 2.60934 -0.819778 -0.0198488
                  CHANNELS 3 Zrotation Xrotation Yrotation
                  End Site
                  {
                    OFFSET 2.33842 -0.294052 0.168128
                  }
                }
              }
              JOINT lPinky1
              {
                OFFSET 8.27202 -0.0477905 -0.4584
                CHANNELS 3 Zrotation Xrotation Yrotation
                JOINT lPinky2
                {
                  OFFSET 1.82734 -0.647385 -0.700984
                  CHANNELS 3 Zrotation Xrotation Yrotation
                  End Site
                  {
                    OFFSET 1.69225 -0.51767 -0.607171
                  }
                }
              }
            }
          }
        }
      }
    }
  }
  JOINT rButtock
  {
    OFFSET -8.77824 4.35084 1.2192
    CHANNELS 3 Zrotation Xrotation Yrotation
    JOINT rThigh
    {
      OFFSET 0 -1.70687 -2.19456
      CHANNELS 3 Zrotation Xrotation Yrotation
      JOINT rShin
      {
        OFFSET 0 -36.8199 0.73152
        CHANNELS 3 Zrotation Xrotation Yrotation
        JOINT rFoot
        {
          OFFSET 0.73152 -45.1104 -5.12064
          CHANNELS 3 Zrotation Xrotation Yrotation
          End Site
          {
            OFFSET -1.1221 -3.69964 12.103
          }
        }
      }
    }
  }
  JOINT lButtock
  {
    OFFSET 8.77824 4.35084 1.2192
    CHANNELS 3 Zrotation Xrotation Yrotation
    JOINT lThigh
    {
      OFFSET 0 -1.70687 -2.19456
      CHANNELS 3 Zrotation Xrotation Yrotation
      JOINT lShin
      {
        OFFSET 0 -36.8199 0.73152
        CHANNELS 3 Zrotation Xrotation Yrotation
        JOINT lFoot
        {
          OFFSET -0.73152 -45.1104 -5.12064
          CHANNELS 3 Zrotation Xrotation Yrotation
          End Site
          {
            OFFSET 1.1221 -3.69964 12.103
          }
        }
      }
    }
  }
}
MOTION
Frames:	5
Frame Time:	0.00833333
17.668 83.6463 8.30849 -367.784 -536.751 386.074 -9.0434 -35.3708 -24.2436 0.133419 8.78108 -7.14541 -5.69626 7.65519 -5.81419 5.87836 -3.25956 -9.04582 -0.0 0.0 0.0 -0.0 0.0 0.0 -4.06988e-14 -6.05696e-13 1.81341e-13 31.6621 -57.7131 20.4252 -24.5257 -48.6897 101.576 -7.50183 58.6193 13.3216 3.15317e-09 5.58653e-10 -2.74872e-09 5.29268e-09 7.31273e-10 -4.88189e-09 3.15317e-09 5.58655e-10 -2.74873e-09 7.73091 5.47488 0.417314 3.15317e-09 5.58654e-10 -2.74872e-09 2.90554 0.965183 0.102902 3.15318e-09 5.58653e-10 -2.74873e-09 10.2786 0.731801 0.0259123 3.15316e-09 5.58651e-10 -2.74871e-09 2.22167 -0.733487 -0.20892 -4.07559e-14 -6.05698e-13 1.81192e-13 -72.5373 38.2487 -4.19009 27.0208 -43.9597 -91.3642 0.92792 -26.2618 3.97626 1.02834e-09 9.43253e-09 5.46107e-09 1.66767e-09 1.65607e-08 9.44979e-09 1.02834e-09 9.43252e-09 5.46109e-09 -7.73091 5.47488 -0.417314 1.02834e-09 9.43252e-09 5.46107e-09 -2.90554 0.965183 -0.102902 1.02834e-09 9.43252e-09 5.46108e-09 -10.2786 0.731801 -0.0259123 1.02835e-09 9.43252e-09 5.46107e-09 -2.22167 -0.733487 0.20892 -2.03217e-16 0.0 -3.88251e-19 -2.72526 -34.4098 13.1595 -0.054136 27.4582 0.603712 4.37879 -17.9572 12.6046 2.03217e-16 0.0 3.88251e-19 16.4455 -58.2684 4.22413 0.357978 41.1969 -0.812141 -1.80231 -4.04678 -11.4208
16.2665 83.8412 7.1835 -367.559 -538.817 385.497 -7.99526 -34.5963 -23.5908 -0.192665 7.89057 -6.64613 -5.44829 7.78345 -5.87156 5.56915 -3.83307 -9.26071 -0.0 0.0 0.0 -0.0 0.0 0.0 -7.30558e-15 -5.23415e-13 2.07279e-13 37.392 -56.7893 19.511 -24.41 -48.8291 101.954 -6.90057 57.2556 12.6151 2.76443e-09 4.60094e-10 -2.835e-09 4.62314e-09 5.58109e-10 -5.01166e-09 2.76443e-09 4.60096e-10 -2.835e-09 7.73091 5.47488 0.417314 2.76443e-09 4.60094e-10 -2.83499e-09 2.90554 0.965183 0.102902 2.76443e-09 4.60093e-10 -2.835e-09 10.2786 0.731801 0.0259123 2.76442e-09 4.60092e-10 -2.83499e-09 2.22167 -0.733487 -0.20892 -7.35371e-15 -5.23417e-13 2.07113e-13 -73.8282 36.2145 -0.35111 26.9414 -44.165 -91.7801 0.946728 -26.4893 4.01666 5.3928e-10 8.58903e-09 4.45391e-09 8.42619e-10 1.50324e-08 7.69935e-09 5.39274e-10 8.58902e-09 4.45392e-09 -7.73091 5.47488 -0.417314 5.39281e-10 8.58902e-09 4.45391e-09 -2.90554 0.965183 -0.102902 5.39275e-10 8.58902e-09 4.45391e-09 -10.2786 0.731801 -0.0259123 5.39286e-10 8.58902e-09 4.45391e-09 -2.22167 -0.733487 0.20892 -2.03217e-16 0.0 -3.88251e-19 -4.21632 -33.0609 13.0486 -0.0495575 26.5833 0.58985 4.60713 -17.3341 13.5452 2.03217e-16 0.0 3.88251e-19 15.3184 -57.104 0.967818 0.277672 36.9353 -0.726247 -1.98823 -2.99858 -13.8442
14.8787 83.9363 6.00914 -367.488 -540.612 384.611 -6.84692 -33.2847 -22.9669 -0.608273 6.78473 -5.95035 -5.07024 8.07294 -5.9267 5.36061 -4.40459 -9.46587 -0.0 0.0 0.0 -0.0 0.0 0.0 3.57384e-14 -3.61091e-13 2.51236e-13 42.605 -55.8092 18.0862 -24.3445 -48.8982 102.164 -6.20635 55.4748 11.7805 1.97977e-09 2.65863e-10 -2.65018e-09 3.28729e-09 2.41676e-10 -4.65599e-09 1.97977e-09 2.65865e-10 -2.65019e-09 7.73091 5.47488 0.417314 1.97976e-09 2.65863e-10 -2.65017e-09 2.90554 0.965183 0.102902 1.97977e-09 2.65863e-10 -2.65018e-09 10.2786 0.731801 0.0259123 1.97976e-09 2.65862e-10 -2.65017e-09 2.22167 -0.733487 -0.20892 3.57146e-14 -3.61094e-13 2.5104e-13 -74.8493 34.443 3.14588 26.8754 -44.337 -92.1221 0.949341 -26.5189 4.022 -2.92771e-10 6.60364e-09 2.57388e-09 -5.57501e-10 1.14752e-08 4.43452e-09 -2.92777e-10 6.60363e-09 2.5739e-09 -7.73091 5.47488 -0.417314 -2.92771e-10 6.60363e-09 2.57389e-09 -2.90554 0.965183 -0.102902 -2.92776e-10 6.60363e-09 2.57389e-09 -10.2786 0.731801 -0.0259123 -2.92767e-10 6.60364e-09 2.57388e-09 -2.22167 -0.733487 0.20892 -2.03217e-16 0.0 -3.88251e-19 -5.6364 -31.4745 12.4321 -0.0519817 25.8878 0.568109 4.77335 -16.6763 14.3942 2.03217e-16 0.0 3.88251e-19 13.9399 -55.6518 -2.60825 0.221287 33.4467 -0.671787 -1.65348 -0.856834 -15.5881
13.5123 83.9464 4.82971 -367.423 -542.319 383.659 -5.6567 -31.8118 -22.2563 -0.994896 5.62329 -5.23153 -4.71153 8.43049 -5.98337 5.22399 -4.85226 -9.65063 -0.0 0.0 0.0 -0.0 0.0 0.0 7.64788e-14 -1.70142e-13 2.73775e-13 47.5336 -54.8264 16.6595 -24.3813 -48.8498 102.043 -5.52095 53.4739 10.936 1.12365e-09 6.74787e-11 -2.28095e-09 1.83641e-09 -6.76427e-11 -3.97954e-09 1.12366e-09 6.74794e-11 -2.28095e-09 7.73091 5.47488 0.417314 1.12365e-09 6.7478e-11 -2.28094e-09 2.90554 0.965183 0.102902 1.12366e-09 6.7478e-11 -2.28095e-09 10.2786 0.731801 0.0259123 1.12365e-09 6.7479e-11 -2.28094e-09 2.22167 -0.733487 -0.20892 7.64833e-14 -1.70146e-13 2.73548e-13 -75.7421 32.7705 6.27869 26.8211 -44.478 -92.4002 0.938286 -26.3834 3.99799 -1.06084e-09 4.18083e-09 6.12461e-10 -1.8454e-09 7.16444e-09 1.03085e-09 -1.06085e-09 4.18082e-09 6.12474e-10 -7.73091 5.47488 -0.417314 -1.06084e-09 4.18082e-09 6.12468e-10 -2.90554 0.965183 -0.102902 -1.06085e-09 4.18082e-09 6.12463e-10 -10.2786 0.731801 -0.0259123 -1.06084e-09 4.18083e-09 6.1246e-10 -2.22167 -0.733487 0.20892 -2.03217e-16 0.0 -3.88251e-19 -6.94257 -30.1096 11.5799 -0.0607544 25.7413 0.554077 4.86199 -15.7673 15.2219 2.03217e-16 0.0 3.88251e-19 12.7031 -54.1196 -5.79417 0.18305 30.8439 -0.637013 -1.11766 1.30023 -16.6884
12.1423 83.9114 3.63628 -367.383 -544.111 382.709 -4.47741 -30.5486 -21.3253 -1.25471 4.56912 -4.65924 -4.52189 8.76297 -6.04512 5.13228 -5.05448 -9.80361 -0.0 0.0 0.0 -0.0 0.0 0.0 1.02961e-13 -1.98513e-15 2.3546e-13 52.3404 -53.9189 15.6815 -24.5666 -48.6319 101.439 -4.9051 51.4532 10.1595 5.20573e-10 -4.35434e-11 -1.81397e-09 8.21812e-10 -2.19461e-10 -3.14694e-09 5.20576e-10 -4.3543e-11 -1.81398e-09 7.73091 5.47488 0.417314 5.20572e-10 -4.35442e-11 -1.81397e-09 2.90554 0.965183 0.102902 5.20579e-10 -4.3544e-11 -1.81398e-09 10.2786 0.731801 0.0259123 5.20563e-10 -4.35422e-11 -1.81397e-09 2.22167 -0.733487 -0.20892 1.02987e-13 -1.98959e-15 2.35212e-13 -76.5958 31.033 8.99356 26.776 -44.5895 -92.6251 0.916616 -26.1154 3.95065 -1.35797e-09 2.02504e-09 -6.38897e-10 -2.3338e-09 3.37539e-09 -1.13607e-09 -1.35798e-09 2.02504e-09 -6.38884e-10 -7.73091 5.47488 -0.417314 -1.35797e-09 2.02504e-09 -6.38888e-10 -2.90554 0.965183 -0.102902 -1.35798e-09 2.02504e-09 -6.38895e-10 -10.2786 0.731801 -0.0259123 -1.35797e-09 2.02505e-09 -6.38897e-10 -2.22167 -0.733487 0.20892 -2.03217e-16 0.0 -3.88251e-19 -8.15263 -29.4368 10.7205 -0.074913 26.5131 0.563287 4.84087 -14.3937 16.0981 2.03217e-16 0.0 3.88251e-19 11.7976 -52.7787 -8.04881 0.16133 29.2393 -0.613524 -0.806782 2.42976 -17.1418
